# xmcd CD database file
# Copyright (C) 1993-1998 Ti Kan
#
# Track frame offsets:
# 150
# 22982
# 50097
# 69765
# 105115
# 122955
# 147030
# 160335
# 175492
# 190135
# 228092
# 260802
# 280190
# 295095
#
# Disc length: 4133 seconds
# Revision: 0
# Processed by: cddbd v1.4b41PL1 Copyright (c) Steve Scherf et al.
# Submitted via: CDSpectrumPro v3.3.333
#
DISCID=c210230e
DTITLE=Tadeusz Nalepa - Tadeusz Nalepa - To moj blues vol. 2  1987-1988
DYEAR=1900
DGENRE=
TTITLE0=POZWOL MI BYC Z TOBA TU
TTITLE1=HOLD
TTITLE2=TEN O TOBIE FILM
TTITLE3=DBAJ O MILOSC
TTITLE4=ON SLONCEM MYM
TTITLE5=NIE ZALUJ MNIE
TTITLE6=WIEC BADZ
TTITLE7=JUZ WSTAL TWOJ DZIEN
TTITLE8=SWIETY BOZE NIE POMOZE
TTITLE9=JEDZ OSTROZNIE NIE POPEDZAJ KOL
TTITLE10=MUSISZ WALCZYC, MUSISZ WIERZYC
TTITLE11=DZIELO TWOICH RAK
TTITLE12=NIE UCIEKAJ, DOKAD UCIEC CHCESZ
TTITLE13=NIE TAKICH LUDZI ZNALES
EXTD=
EXTT0=
EXTT1=
EXTT2=
EXTT3=
EXTT4=
EXTT5=
EXTT6=
EXTT7=
EXTT8=
EXTT9=
EXTT10=
EXTT11=
EXTT12=
EXTT13=
PLAYORDER=
